<?xml version="1.0" standalone="no"?><!DOCTYPE svg PUBLIC "-//W3C//DTD SVG 1.1//EN" "http://www.w3.org/Graphics/SVG/1.1/DTD/svg11.dtd"><svg width="100%" height="100%" viewBox="0 0 599 176" version="1.1" xmlns="http://www.w3.org/2000/svg" xmlns:xlink="http://www.w3.org/1999/xlink" xml:space="preserve" style="fill-rule:evenodd;clip-rule:evenodd;stroke-linejoin:round;stroke-miterlimit:1.41421;"><g><path d="M260.063,104.88c-9.721,0 -17.602,7.881 -17.602,17.604l0,52.802l352.035,0l0,-70.406l-334.433,0l0,0Z" style="fill:#006892;fill-rule:nonzero;"/><path d="M269.913,117.771c0.003,0.001 0.005,0.001 0.008,0.002c-0.003,-0.001 -0.005,-0.001 -0.008,-0.002" style="fill:#fff;fill-rule:nonzero;"/><path d="M269.921,117.773c0.031,0.006 0.062,0.013 0.093,0.018c-0.031,-0.006 -0.062,-0.012 -0.093,-0.018" style="fill:#fff;fill-rule:nonzero;"/><path d="M269.913,117.771c0.003,0.001 0.005,0.001 0.008,0.002c-0.003,-0.001 -0.005,-0.001 -0.008,-0.002" style="fill:#fff;fill-rule:nonzero;"/><path d="M269.921,117.773c0.031,0.006 0.062,0.013 0.093,0.018c-0.031,-0.006 -0.062,-0.012 -0.093,-0.018" style="fill:#fff;fill-rule:nonzero;"/><text x="258.677px" y="136.333px" style="font-family:'SansaSoftPro-Normal';font-size:28px;fill:#fff;">T</text><text x="274.909px" y="136.333px" style="font-family:'SansaSoftPro-Normal';font-size:28px;fill:#fff;">HE</text><text x="318.267px" y="136.333px" style="font-family:'SansaSoftPro-Normal';font-size:28px;fill:#fff;">C</text><text x="335.815px" y="136.333px" style="font-family:'SansaSoftPro-Normal';font-size:28px;fill:#fff;">U</text><text x="355.547px" y="136.333px" style="font-family:'SansaSoftPro-Normal';font-size:28px;fill:#fff;">R</text><text x="373.615px" y="136.333px" style="font-family:'SansaSoftPro-Normal';font-size:28px;fill:#fff;">T</text><text x="389.847px" y="136.333px" style="font-family:'SansaSoftPro-Normal';font-size:28px;fill:#fff;">IN</text><text x="425.113px" y="136.333px" style="font-family:'SansaSoftPro-Normal';font-size:28px;fill:#fff;">I</text><text x="432.581px" y="136.333px" style="font-family:'SansaSoftPro-Normal';font-size:28px;fill:#fff;">N</text><text x="453.181px" y="136.333px" style="font-family:'SansaSoftPro-Normal';font-size:28px;fill:#fff;">S</text><text x="469.289px" y="136.333px" style="font-family:'SansaSoftPro-Normal';font-size:28px;fill:#fff;">T</text><text x="485.521px" y="136.333px" style="font-family:'SansaSoftPro-Normal';font-size:28px;fill:#fff;">I</text><text x="492.989px" y="136.333px" style="font-family:'SansaSoftPro-Normal';font-size:28px;fill:#fff;">T</text><text x="509.321px" y="136.333px" style="font-family:'SansaSoftPro-Normal';font-size:28px;fill:#fff;">U</text><text x="529.053px" y="136.333px" style="font-family:'SansaSoftPro-Normal';font-size:28px;fill:#fff;">T</text><text x="545.285px" y="136.333px" style="font-family:'SansaSoftPro-Normal';font-size:28px;fill:#fff;">E</text><text x="258.677px" y="166.321px" style="font-family:'SansaSoftPro-Normal';font-size:28px;fill:#fff;">F</text><text x="273.593px" y="166.321px" style="font-family:'SansaSoftPro-Normal';font-size:28px;fill:#fff;">OR</text><text x="318.911px" y="166.321px" style="font-family:'SansaSoftPro-Normal';font-size:28px;fill:#fff;">C</text><text x="336.459px" y="166.321px" style="font-family:'SansaSoftPro-Normal';font-size:28px;fill:#fff;">O</text><text x="356.611px" y="166.321px" style="font-family:'SansaSoftPro-Normal';font-size:28px;fill:#fff;">M</text><text x="379.943px" y="166.321px" style="font-family:'SansaSoftPro-Normal';font-size:28px;fill:#fff;">P</text><text x="396.595px" y="166.321px" style="font-family:'SansaSoftPro-Normal';font-size:28px;fill:#fff;">U</text><text x="416.327px" y="166.321px" style="font-family:'SansaSoftPro-Normal';font-size:28px;fill:#fff;">T</text><text x="430.859px" y="166.321px" style="font-family:'SansaSoftPro-Normal';font-size:28px;fill:#fff;">A</text><text x="447.525px" y="166.321px" style="font-family:'SansaSoftPro-Normal';font-size:28px;fill:#fff;">T</text><text x="463.757px" y="166.321px" style="font-family:'SansaSoftPro-Normal';font-size:28px;fill:#fff;">I</text><text x="471.225px" y="166.321px" style="font-family:'SansaSoftPro-Normal';font-size:28px;fill:#fff;">O</text><text x="491.477px" y="166.321px" style="font-family:'SansaSoftPro-Normal';font-size:28px;fill:#fff;">N</text></g><g><rect x="3.751" y="3.727" width="97.832" height="97.244" style="fill:#bf8e07;"/><path d="M52.719,21.126l11.982,6.835c0,0 1.146,0.518 1.666,1.449c0.521,0.83 0.521,1.761 0.521,1.761l0,10.667c0,0 0.105,1.346 -0.312,2.071c-0.417,0.725 -0.834,1.139 -0.834,1.139l-11.044,6.525c0,0 -1.042,0.725 -1.979,0.725c-0.834,0 -2.188,-0.725 -2.188,-0.725l-10.314,-6.006c0,0 -0.418,-0.208 -1.147,-1.036c-0.729,-0.828 -0.625,-2.279 -0.625,-2.072c0,0.208 0,-11.495 0,-11.495c0,0 -0.104,-0.724 0.521,-1.449c0.729,-1.036 1.355,-1.244 1.355,-1.244l12.398,-7.145l0,0Z" style="fill:#fefefe;fill-rule:nonzero;"/><path d="M23.338,21.644l0,3.728l14.378,0l6.668,-3.728l-21.046,0Z" style="fill:#fefefe;fill-rule:nonzero;"/><path d="M81.996,21.644l-20.838,0l6.668,3.728l14.17,0l0,-3.728Z" style="fill:#fefefe;fill-rule:nonzero;"/><rect x="70.847" y="29.204" width="11.148" height="3.832" style="fill:#fefefe;"/><rect x="23.338" y="29.204" width="11.148" height="3.832" style="fill:#fefefe;"/><rect x="70.847" y="36.867" width="11.148" height="3.832" style="fill:#fefefe;"/><rect x="23.338" y="36.867" width="11.148" height="3.832" style="fill:#fefefe;"/><path d="M69.389,47.327l-1.771,1.036l14.378,0l0,-3.832l-11.253,0c0,0.414 -0.104,0.931 -0.313,1.346c-0.52,1.036 -1.041,1.45 -1.041,1.45Z" style="fill:#fefefe;fill-rule:nonzero;"/><path d="M35.319,46.705c-0.52,-0.621 -0.729,-1.553 -0.729,-2.174l-11.252,0l0,3.832l14.169,0l-0.729,-0.415c0,0 -0.625,-0.207 -1.459,-1.243l0,0Z" style="fill:#fefefe;fill-rule:nonzero;"/><path d="M54.698,56.026l27.298,0c0,-0.208 0,-0.311 0,-0.414l0,-3.418l-20.838,0l-5.835,3.521c0,0 -0.312,0.103 -0.625,0.311l0,0Z" style="fill:#fefefe;fill-rule:nonzero;"/><path d="M43.967,52.194l-20.629,0l0,3.832l27.297,0c-0.417,-0.208 -0.729,-0.311 -0.729,-0.311l-5.939,-3.521l0,0Z" style="fill:#fefefe;fill-rule:nonzero;"/><path d="M80.641,63.69c0.417,-1.243 0.73,-2.59 1.042,-3.832l-26.985,0l0,3.832l25.943,0Z" style="fill:#fefefe;fill-rule:nonzero;"/><path d="M23.754,59.858c0.209,1.242 0.522,2.589 1.043,3.832l25.942,0l0,-3.832l-26.985,0l0,0Z" style="fill:#fefefe;fill-rule:nonzero;"/><path d="M26.464,67.418c0.729,1.346 1.563,2.693 2.5,3.832l21.775,0l0,-3.832l-24.275,0l0,0Z" style="fill:#fefefe;fill-rule:nonzero;"/><path d="M76.474,71.25c0.938,-1.139 1.771,-2.486 2.5,-3.832l-24.276,0l0,3.832l21.776,0Z" style="fill:#fefefe;fill-rule:nonzero;"/><path d="M32.298,75.081c1.459,1.346 2.917,2.693 4.584,3.832l13.857,-0.001l0,-3.832l-18.441,0.001l0,0Z" style="fill:#fefefe;fill-rule:nonzero;"/><path d="M68.451,78.913c1.667,-1.139 3.23,-2.486 4.585,-3.833l-18.338,0l0,3.832l13.753,0l0,0.001Z" style="fill:#fefefe;fill-rule:nonzero;"/><path d="M43.134,82.744c2.396,1.243 4.897,2.797 7.605,3.728l0,-3.728l-7.605,0Z" style="fill:#fefefe;fill-rule:nonzero;"/><path d="M62.2,82.744l-7.502,0l0,3.728c2.606,-0.931 5.106,-2.485 7.502,-3.728Z" style="fill:#fefefe;fill-rule:nonzero;"/><rect x="105.438" y="3.727" width="489.056" height="97.244" style="fill:#000;"/><path d="M105.438,3.727l489.057,0l0,97.244l-489.057,0l0,-97.244l0,0ZM3.751,3.727l97.832,0l0,97.244l-97.832,0l0,-97.244l0,0ZM0,104.803l598.349,0l0,-104.803l-598.349,0l0,104.803Z" style="fill:#fefefe;fill-rule:nonzero;"/><path d="M452.904,46.187c-2.084,0 -4.689,2.072 -5.626,3.211c-0.938,1.139 -3.334,5.075 -3.334,5.075l0,17.397c0,0 -1.25,0 -1.771,0l-1.355,0c-1.042,0 -1.667,-0.725 -1.667,-1.759l0,-26.513c0,-0.621 0,-1.76 0,-1.76l3.022,0c1.042,0 1.771,0.725 1.771,1.76l0,4.868l0.417,-0.622c2.188,-3.416 4.896,-6.006 8.751,-6.006l0.208,0c0.625,0 1.042,0.207 1.355,0.621c0.312,0.208 0.416,0.622 0.416,1.139l0,2.589l-2.187,0l0,0Z" style="fill:#fefefe;fill-rule:nonzero;"/><path d="M325.795,57.683c0,9.424 -6.043,14.602 -15.108,14.602c-9.376,0 -15.003,-5.178 -15.003,-14.602l0,-25.269c0,-1.035 0.625,-1.657 1.668,-1.657l3.438,0l0,26.926c0,7.352 4.376,10.149 9.897,10.149c5.627,0 9.899,-2.797 9.899,-10.149l0,-25.269c0,-1.035 0.729,-1.657 1.771,-1.657l3.438,0l0,26.926Z" style="fill:#fefefe;fill-rule:nonzero;"/><path d="M402.894,49.605c0,10.253 -6.043,19.676 -9.064,22.265l-5.21,0c-3.021,-2.589 -8.543,-12.012 -8.543,-22.265l0,-6.007c0,-1.035 0.625,-1.76 1.667,-1.76l3.125,0c0,0 -0.104,1.346 -0.104,1.76l0,6.007c0,8.595 3.438,15.638 6.668,18.745c3.23,-3.107 6.668,-10.15 6.668,-18.745l0,-6.007c0,-1.035 0.73,-1.76 1.771,-1.76l3.022,0l0,7.767Z" style="fill:#fefefe;fill-rule:nonzero;"/><path d="M408.936,60.272l0,-5.904c0,-8.181 5.627,-12.944 12.92,-12.944c6.043,0 10.315,2.588 10.315,8.595c0,5.385 -3.438,8.596 -9.482,8.596l-8.96,0l0,1.657c0,5.592 3.438,7.767 8.127,7.767c3.439,0 8.648,-1.864 8.648,-1.864l0,2.692c0,1.036 -0.209,1.45 -1.146,1.864c-0.417,0.208 -4.063,1.554 -7.502,1.554c-7.293,0 -12.92,-3.418 -12.92,-12.013l0,0ZM421.439,54.679c4.689,0 6.043,-1.656 6.043,-4.66c0,-3.21 -2.187,-4.349 -5.626,-4.349c-5.209,0 -8.127,2.589 -8.127,8.698l0,0.311l7.71,0Z" style="fill:#fefefe;fill-rule:nonzero;"/><path d="M463.323,50.019c0,2.796 1.875,3.004 4.375,3.625l3.647,0.932c4.689,1.036 8.335,2.9 8.335,8.699c0,6.628 -5.73,9.01 -11.982,9.01c-3.646,0 -7.188,-0.621 -7.501,-0.725c-0.521,-0.207 -1.354,-0.415 -1.354,-0.415c0,0 0,-0.62 0,-1.242l0,-1.45c0,-0.932 0.625,-1.243 1.354,-1.243c0.209,0 0.313,0 0.625,0c0.417,0.104 3.334,0.829 6.876,0.829c4.689,0 7.294,-1.346 7.294,-4.764c0,-2.589 -2.189,-3.728 -4.689,-4.246l-4.584,-1.139c-4.063,-0.932 -7.084,-3.211 -7.084,-7.871c0,-5.385 4.479,-8.595 11.668,-8.595c3.647,0 6.252,0.621 6.668,0.621c0.521,0.104 1.251,0.311 1.251,0.311l0,2.796c0,0.932 -0.625,1.243 -1.459,1.243c-0.938,0 -2.917,-0.725 -6.46,-0.725c-4.584,0 -6.98,1.346 -6.98,4.349l0,0Z" style="fill:#fefefe;fill-rule:nonzero;"/><path d="M540.109,64.104l-2.188,2.175c-2.188,2.174 -4.793,3.832 -8.752,3.832c-4.896,0 -8.023,-2.693 -8.023,-10.253l0,-16.26c0,-1.035 0.626,-1.76 1.772,-1.76l3.022,0l0,18.02c0,4.557 1.875,6.006 4.584,6.006c3.021,0 6.146,-3.003 7.814,-4.66l1.771,-1.76l0,-15.846c0,-1.035 0.625,-1.76 1.667,-1.76l3.126,0l0,26.201c0,10.252 -6.147,14.084 -16.462,14.084l-3.438,0c-0.521,0 -1.667,0 -1.667,0c0,0 0,-1.242 0,-1.761l0,-0.828c0,-1.036 0.625,-1.76 1.667,-1.76l3.438,0c8.23,0 11.669,-2.486 11.669,-9.424l0,-4.246l0,0Z" style="fill:#fefefe;fill-rule:nonzero;"/><path d="M514.166,67.521c0.521,0 1.042,0.207 1.25,0.518c0.313,0.311 0.417,0.725 0.417,1.242l0,2.589c0,0 -1.146,0 -1.667,0l-2.604,0c-5.939,0 -9.899,-3.417 -9.899,-9.941l0,-25.165c0,-0.518 0,-1.761 0,-1.761l3.022,0c1.042,0 1.772,0.725 1.772,1.761l0,5.074l6.876,0c1.041,0 1.667,0.725 1.667,1.76l0,2.589c0,0 -1.146,0 -1.667,0l-6.876,0l0,15.742c0,3.52 1.771,5.592 5.105,5.592l2.604,0Z" style="fill:#fefefe;fill-rule:nonzero;"/><path d="M372.679,70.111c0,0.62 0,1.759 0,1.759c0,0 -1.25,0 -1.771,0l-1.25,0c-1.042,0 -1.771,-0.725 -1.771,-1.759l0,-23.924l-3.334,0c-1.146,0 -1.667,-0.62 -1.667,-1.759l0,-2.59l8.022,0c1.146,0 1.771,0.725 1.771,1.76l0,26.513ZM372.679,34.175c0,1.036 -0.625,1.76 -1.771,1.76l-1.25,0c-0.521,0 -1.771,0 -1.771,0c0,0 0,-1.139 0,-1.76l0,-1.658c0,-1.138 0.729,-1.76 1.771,-1.76l3.021,0l0,3.418Z" style="fill:#fefefe;fill-rule:nonzero;"/><path d="M493.954,70.111c0,0.62 0,1.759 0,1.759c0,0 -1.25,0 -1.667,0l-1.354,0c-1.042,0 -1.667,-0.725 -1.667,-1.759l0,-23.924l-3.439,0c-1.146,0 -1.667,-0.62 -1.667,-1.759l0,-2.59l8.127,0c1.042,0 1.667,0.725 1.667,1.76l0,26.513ZM493.954,34.175c0,1.036 -0.625,1.76 -1.667,1.76l-1.354,0c-0.521,0 -1.667,0 -1.667,0l0,-3.418c0,-1.138 0.625,-1.76 1.667,-1.76l3.021,0l0,3.418Z" style="fill:#fefefe;fill-rule:nonzero;"/><path d="M338.297,47.43l2.084,-2.071c2.188,-2.175 4.793,-3.935 8.648,-3.935c4.688,0 8.126,2.588 8.126,10.356l0,20.09c0,0 -1.146,0 -1.667,0l-1.354,0c-1.042,0 -1.667,-0.725 -1.667,-1.759l0,-18.331c0,-4.764 -2.188,-6.11 -4.688,-6.11c-3.127,0 -6.148,3.003 -7.815,4.763l-1.667,1.761l0,19.676l-3.021,0c-1.146,0 -1.771,-0.725 -1.771,-1.759l0,-28.273l3.021,0c1.042,0 1.771,0.725 1.771,1.76l0,3.832Z" style="fill:#fefefe;fill-rule:nonzero;"/><path d="M183.162,66.279l-2.188,2.174c-2.188,2.175 -4.688,3.832 -8.647,3.832c-4.69,0 -8.128,-2.59 -8.128,-10.253l0,-18.434c0,-1.035 0.626,-1.656 1.667,-1.656l1.355,0c0.625,0 1.772,-0.104 1.772,-0.104l0,20.194c0,4.661 2.083,6.007 4.688,6.007c3.021,0 6.042,-3.004 7.709,-4.764l1.772,-1.657l0,-18.02c0,-1.035 0.625,-1.656 1.667,-1.656l1.355,0c0.521,0 1.667,-0.104 1.667,-0.104l0,28.273c0,1.034 -0.625,1.759 -1.667,1.759l-1.355,0c-0.521,0 -1.667,0 -1.667,0c0,0 0,-1.242 0,-1.759l0,-3.832l0,0Z" style="fill:#fefefe;fill-rule:nonzero;"/><path d="M209.417,46.187c-2.188,0 -4.688,2.072 -5.626,3.211c-0.937,1.139 -3.439,5.075 -3.439,5.075l0,17.397c0,0 -1.25,0 -1.771,0l-1.25,0c-1.146,0 -1.667,-0.725 -1.667,-1.759l0,-28.169l2.917,-0.104c1.146,0 1.771,0.725 1.771,1.76l0,4.868l0.418,-0.622c2.292,-3.416 4.897,-5.902 8.855,-5.902l0.209,0c0.521,0 1.042,0.103 1.354,0.517c0.209,0.311 0.313,0.622 0.313,1.139l0,2.589l-2.084,0l0,0Z" style="fill:#fefefe;fill-rule:nonzero;"/><path d="M228.796,67.625c0.521,0 0.937,0.103 1.25,0.414c0.313,0.311 0.417,0.725 0.417,1.242l0,2.589c0,0 -1.146,0 -1.667,0l-2.605,0c-5.938,0 -9.898,-3.417 -9.898,-9.838l0,-25.268c0,-0.518 0,-1.761 0,-1.761l3.022,0c1.042,0 1.667,0.725 1.667,1.761l0,5.178l6.98,0c1.042,0 1.667,0.621 1.667,1.656l0,2.589c0,0 -1.146,0 -1.667,0l-6.98,0l0,15.845c0,3.417 1.876,5.593 5.209,5.593l2.605,0Z" style="fill:#fefefe;fill-rule:nonzero;"/><path d="M244.841,70.111c0,0.62 0,1.759 0,1.759c0,0 -1.146,0 -1.667,0l-1.25,0c-1.146,0 -1.771,-0.725 -1.771,-1.759l0,-23.924l-3.438,0c-1.146,0 -1.667,-0.62 -1.667,-1.759l0,-2.59c0,0 1.146,0.104 1.667,0.104l6.459,0c1.042,0 1.667,0.621 1.667,1.656l0,26.513ZM244.841,34.175c0,1.139 -0.625,1.76 -1.667,1.76l-1.25,0c-0.625,0 -1.771,0 -1.771,0c0,0 0,-1.139 0,-1.76l0,-1.658c0,-1.035 0.625,-1.76 1.771,-1.76l2.917,0l0,3.418Z" style="fill:#fefefe;fill-rule:nonzero;"/><path d="M257.344,47.43l2.187,-2.071c2.084,-2.175 4.688,-3.935 8.544,-3.935c4.688,0 8.126,2.588 8.126,10.356l0,20.09c0,0 -1.146,0 -1.667,0l-1.25,0c-1.146,0 -1.771,-0.725 -1.771,-1.759l0,-18.331c0,-4.764 -2.188,-6.007 -4.688,-6.007c-3.022,0 -6.044,3.004 -7.815,4.66l-1.667,1.761l0,19.676c0,0 -1.25,0 -1.771,0l-1.25,0c-1.146,0 -1.771,-0.725 -1.771,-1.759l0,-26.513c0,-0.517 0,-1.76 0,-1.76c0,0 1.146,0.104 1.771,0.104l1.25,0c1.146,0 1.771,0.621 1.771,1.656l0,3.832l0.001,0Z" style="fill:#fefefe;fill-rule:nonzero;"/><path d="M147.425,34.796c1.772,0 3.334,0.207 4.793,0.518c1.563,0.414 3.022,0.932 3.855,1.242c0.313,0.104 0.521,0.208 0.73,0.208c0.521,0 0.937,-0.415 0.937,-1.139l0,-1.761c0,-0.622 0,-1.553 0,-1.553c-0.208,-0.104 -0.729,-0.311 -1.042,-0.415c-0.625,-0.31 -2.187,-0.725 -3.958,-1.139c-0.105,0 -0.105,0 -0.209,0c-0.626,-0.103 -1.355,-0.207 -2.084,-0.311l-0.105,0c-0.625,-0.103 -1.354,-0.103 -2.083,-0.103c-12.086,0 -19.796,6.421 -19.796,18.434l0,5.074c0,10.667 5.626,18.434 18.129,18.434l2.604,0c3.126,0 6.461,-1.14 7.398,-1.45c0.521,-0.207 1.146,-0.518 1.146,-0.518c0,0 0,-0.828 0,-1.45l0,-1.449c0,-0.725 -0.416,-1.036 -0.937,-1.036c-0.209,0 -0.417,0 -0.73,0.103c-1.354,0.518 -4.168,1.347 -6.877,1.347l-2.604,0c-8.23,0 -13.024,-4.971 -13.024,-13.981l0,-5.074c0,-10.045 6.148,-13.981 13.857,-13.981Z" style="fill:#fefefe;fill-rule:nonzero;"/></g></svg>