<?xml version="1.0" standalone="no"?><!DOCTYPE svg PUBLIC "-//W3C//DTD SVG 1.1//EN" "http://www.w3.org/Graphics/SVG/1.1/DTD/svg11.dtd"><svg width="100%" height="100%" viewBox="0 0 12591 2578" version="1.1" xmlns="http://www.w3.org/2000/svg" xmlns:xlink="http://www.w3.org/1999/xlink" xml:space="preserve" style="fill-rule:evenodd;clip-rule:evenodd;stroke-linejoin:round;stroke-miterlimit:1.41421;"><path id="path4094" d="M3619,574.983c-40,-43 -239,-38 -294,-39c-302,-2 -866,15 -1148,15c-11,0 -50,19 -44,35c-200,0 -306,1 -548,-2c-131,-1 -443,15 -451,-216c-4,-116 102,-218 227,-342c-80,-24 -160,29 -241,74c-39,39 -66,65 -99,98c-122,178 -170,358 -141,538c110,-21 192,130 115,201l-69,1c-33,0 -59,34 -58,74l2,160c1,41 28,68 60,68l348,0c32,-1 58,-34 57,-75l-2,-160c0,-40 -27,-73 -60,-72l-43,0c-77,-215 170,-187 310,-185c262,2 350,1 581,1c13,16 7,46 43,61c23,9 1412,6 1437,0c25,-6 18,-18 27,-27c12,-48 39,-155 -9,-208ZM1276,962.983l0,170c0,0 -5,-111 -50,-118c-46,-7 -20,-52 -20,-52l70,0ZM3604,650.983c0,0 -41,-14 -74,-35c-71,-46 -1331,-5 -1331,-5l36,-30c0,0 1284,-22 1328,0c44,22 41,70 41,70Z" style="fill:#2b3991;stroke-width:1px;stroke:#000;"/><path id="path4099" d="M611,2172.98c25,-36 37,-79 37,-129c0,-33 -9,-63 -27,-88c-19,-26 -46,-49 -82,-68c-36,-19 -83,-36 -140,-50c-50,-12 -87,-22 -115,-30c-28,-8 -50,-19 -67,-32c-18,-13 -26,-30 -26,-51c0,-23 11,-43 35,-58c23,-14 52,-22 86,-22c34,0 60,6 80,17c20,11 37,26 51,45c17,21 32,38 45,48c13,10 28,15 46,15c25,0 44,-6 58,-19c13,-13 20,-29 20,-49c0,-18 -7,-38 -19,-57c-13,-20 -33,-38 -58,-55c-25,-16 -57,-29 -94,-39c-38,-10 -81,-15 -129,-15c-60,0 -112,10 -155,29c-42,19 -75,46 -96,78c-22,32 -33,67 -33,103c0,40 12,75 35,102c24,28 55,51 95,68c40,17 92,34 155,50c57,14 99,28 124,43c26,16 39,41 39,76c0,23 -13,43 -38,60c-24,17 -56,26 -94,26c-46,0 -84,-9 -111,-25c-27,-17 -50,-42 -70,-76c-9,-17 -19,-30 -29,-39c-9,-9 -23,-13 -42,-13c-21,0 -38,7 -52,20c-13,14 -20,30 -20,49c0,30 11,60 33,90c22,30 57,55 104,75c47,20 104,30 169,30c69,0 129,-9 177,-28c47,-18 84,-45 108,-81Z" style="fill:#2b3991;stroke-width:1px;stroke:#000;"/><path id="path4104" d="M1931,1259.98c-61,0 -109,8 -143,23c-34,15 -59,40 -73,73c-14,33 -22,79 -22,136l0,61l-48,0c-60,0 -89,20 -89,62c0,19 7,33 21,45c14,12 34,18 61,18l55,0l0,496c0,36 9,63 25,81c17,19 38,28 63,28c26,0 48,-10 64,-28c17,-18 25,-45 25,-81l0,-496l50,0c33,0 58,-4 76,-12c18,-8 26,-25 26,-54c0,-40 -33,-59 -102,-59l-50,0l0,-49c0,-37 5,-67 15,-87c10,-21 33,-32 69,-32c12,0 27,1 45,4c18,3 30,4 37,4c14,0 26,-5 37,-17c10,-11 16,-25 16,-41c0,-50 -54,-75 -158,-75Z" style="fill:#2b3991;stroke-width:1px;stroke:#000;"/><path id="path4109" d="M2576,2193.98c0,-16 -5,-30 -16,-41c-11,-12 -24,-17 -38,-17c-10,0 -24,2 -42,6c-19,4 -34,6 -45,6c-22,0 -37,-6 -47,-17c-9,-10 -15,-24 -17,-40c-2,-16 -4,-39 -4,-68l0,-346l40,0c36,0 64,-5 82,-15c19,-9 28,-25 28,-48c0,-18 -7,-33 -20,-44c-13,-12 -32,-18 -57,-18l-73,0l0,-131c0,-31 -1,-55 -5,-72c-3,-16 -10,-29 -22,-41c-18,-16 -39,-25 -61,-25c-16,0 -31,4 -44,11c-12,8 -22,18 -29,30c-7,11 -11,25 -13,42c-1,17 -2,40 -2,70l0,116l-25,0c-27,0 -48,6 -62,18c-13,11 -20,26 -20,44c0,18 6,33 20,45c13,12 32,18 58,18l29,0l0,361c0,57 4,103 14,137c9,33 28,60 57,78c29,19 72,29 129,29c60,0 107,-8 139,-23c31,-16 46,-37 46,-65Z" style="fill:#2b3991;stroke-width:1px;stroke:#000;"/><path id="path4114" d="M3487,2138.98l152,-445c14,-38 21,-66 21,-85c0,-19 -8,-37 -23,-51c-15,-15 -34,-22 -55,-22c-21,0 -37,5 -48,14c-11,10 -19,21 -24,34c-5,13 -11,35 -19,64l-127,431l-115,-401c-11,-39 -20,-66 -26,-81c-6,-15 -17,-29 -32,-42c-15,-13 -36,-19 -62,-19c-26,0 -47,6 -61,19c-15,13 -26,26 -31,40c-6,15 -14,43 -26,83l-115,401l-125,-431c-12,-41 -24,-71 -35,-88c-9,-16 -29,-24 -58,-24c-22,0 -41,8 -56,23c-15,15 -22,31 -22,50c0,15 7,44 22,85l151,445c4,12 9,28 17,48c7,20 15,37 24,51c9,15 21,25 34,33c14,7 31,11 50,11c38,0 65,-12 80,-36c16,-25 30,-63 44,-113l107,-377l111,377c9,33 17,59 25,79c7,20 19,37 34,50c15,14 37,20 63,20c26,0 47,-6 62,-18c15,-13 26,-27 33,-44c7,-16 17,-43 30,-81Z" style="fill:#2b3991;stroke-width:1px;stroke:#000;"/><path id="path4119" d="M4416,2139.98c-12,-38 -18,-76 -18,-111c1,-37 1,-71 1,-101c1,-30 1,-68 1,-111c0,-68 -10,-123 -29,-164c-19,-41 -51,-71 -96,-90c-46,-18 -111,-28 -191,-28c-72,0 -134,10 -182,30c-48,19 -83,44 -106,74c-22,30 -34,61 -34,93c0,19 7,35 22,48c14,12 31,19 51,19c21,0 35,-4 41,-11c7,-9 19,-26 36,-52c17,-27 39,-47 63,-61c24,-13 61,-20 109,-20c56,0 94,12 112,36c18,24 28,61 30,111l1,3l-4,1c-38,11 -74,21 -109,29c-33,8 -73,17 -120,27c-49,10 -76,15 -88,18c-55,12 -98,36 -130,71c-31,35 -47,77 -47,127c0,36 10,71 29,102c19,32 46,57 81,75c35,18 77,28 124,28c51,0 98,-9 139,-26c42,-18 85,-44 129,-78l4,-3l3,4c21,34 40,59 59,77c17,17 35,26 53,26c21,0 41,-8 58,-23c17,-15 25,-30 25,-48c0,-11 -6,-35 -17,-72ZM4226,1939.98c0,65 -8,113 -25,141c-15,26 -39,48 -71,64c-31,17 -66,25 -103,25c-36,0 -65,-10 -87,-31c-22,-21 -34,-46 -34,-75c0,-29 10,-51 29,-67c19,-16 39,-26 59,-32c20,-5 56,-13 108,-24c52,-11 92,-22 118,-32l7,-2l0,33l-1,0Z" style="fill:#2b3991;stroke-width:1px;stroke:#000;"/><path id="path4124" d="M4993,1564.98c-36,-19 -74,-29 -112,-29c-38,0 -68,10 -90,28c-23,19 -46,48 -68,85l-8,14l-1,-16c-1,-37 -8,-65 -21,-84c-13,-18 -34,-27 -63,-27c-58,0 -86,39 -86,121l0,517c0,36 8,63 25,81c16,18 37,27 62,27c26,0 48,-9 64,-27c17,-17 26,-45 26,-81l0,-155c0,-56 1,-104 5,-142c4,-39 10,-73 20,-102c10,-29 24,-51 42,-66c31,-25 76,-30 140,-9c32,10 43,12 48,12c17,0 33,-7 47,-21c15,-14 22,-31 22,-53c0,-30 -17,-54 -52,-73Z" style="fill:#2b3991;stroke-width:1px;stroke:#000;"/><path id="path4129" d="M5722,2147.98c13,-21 19,-40 19,-56c0,-18 -5,-31 -16,-41c-11,-9 -25,-14 -43,-14c-17,0 -29,3 -38,11c-23,22 -42,39 -56,51c-15,13 -31,25 -48,37c-18,11 -36,19 -55,25c-19,5 -40,8 -62,8c-34,0 -66,-9 -94,-26c-28,-16 -50,-41 -67,-74c-17,-33 -26,-71 -26,-114l0,-4l368,0c47,0 85,-7 111,-21c25,-13 37,-42 37,-86c0,-50 -13,-99 -38,-147c-25,-47 -64,-87 -115,-117c-51,-30 -113,-45 -184,-45c-55,0 -106,9 -151,27c-45,17 -84,43 -114,76c-31,33 -55,73 -71,119c-16,46 -24,97 -24,151c0,115 33,207 98,274c65,67 158,101 275,101c52,0 98,-7 137,-21c40,-13 73,-30 99,-50c26,-20 46,-42 58,-64ZM5236,1848.98c6,-63 25,-112 55,-144c30,-33 70,-50 117,-50c50,0 91,17 121,49c30,32 48,81 53,145l0,5l-347,0l1,-5Z" style="fill:#2b3991;stroke-width:1px;stroke:#000;"/><path id="path4134" d="M6903,2128.98c13,-25 20,-50 20,-72c0,-18 -7,-36 -21,-52c-14,-16 -32,-24 -53,-24c-18,0 -33,5 -45,16c-13,12 -25,28 -36,48c-21,36 -45,63 -72,81c-27,17 -60,26 -98,26c-29,0 -55,-5 -78,-16c-24,-11 -45,-27 -61,-49c-17,-20 -30,-46 -39,-76c-8,-29 -13,-62 -13,-97c0,-76 18,-136 52,-179c34,-44 80,-66 136,-66c39,0 71,9 97,26c25,18 49,44 72,79c12,17 24,30 34,37c9,8 21,11 35,11c22,0 42,-7 57,-21c16,-15 24,-32 24,-54c0,-20 -8,-43 -22,-68c-14,-24 -35,-48 -63,-70c-27,-21 -61,-39 -100,-53c-40,-14 -84,-21 -131,-21c-77,0 -143,16 -198,47c-55,32 -97,77 -126,134c-29,58 -44,125 -44,200c0,111 32,200 95,266c64,66 153,99 266,99c53,0 102,-7 144,-21c42,-15 78,-34 106,-57c28,-23 49,-48 62,-74Z" style="fill:#2b3991;stroke-width:1px;stroke:#000;"/><path id="path4139" d="M7720,2139.98c-12,-38 -18,-76 -18,-111c1,-37 1,-71 1,-101c1,-30 1,-68 1,-111c0,-68 -10,-123 -29,-164c-19,-41 -51,-71 -96,-90c-46,-18 -110,-28 -191,-28c-72,0 -133,10 -182,30c-48,19 -83,44 -106,74c-22,30 -34,61 -34,93c0,19 7,35 22,48c14,13 31,19 51,19c21,0 35,-4 41,-11c7,-9 19,-26 36,-52c18,-27 39,-47 63,-61c24,-13 61,-20 109,-20c56,0 94,12 112,36c18,24 28,61 31,111l0,3l-4,1c-38,12 -75,21 -109,29c-33,8 -73,17 -120,27c-49,10 -76,15 -87,18c-56,12 -99,36 -131,71c-31,35 -47,77 -47,127c0,36 10,71 29,102c19,31 46,57 81,75c35,18 77,28 124,28c51,0 98,-9 139,-26c42,-18 85,-44 129,-78l4,-3l3,4c21,34 40,59 59,77c17,17 35,26 53,26c21,0 41,-8 58,-23c17,-15 25,-30 25,-48c0,-11 -6,-35 -17,-72ZM7531,1939.98c0,65 -9,113 -26,141c-15,26 -39,48 -71,64c-31,17 -66,25 -103,25c-36,0 -65,-10 -87,-31c-22,-20 -34,-46 -34,-75c0,-29 10,-51 29,-67c19,-16 39,-26 59,-32c20,-5 56,-13 108,-24c52,-11 92,-22 118,-32l7,-2l0,33Z" style="fill:#2b3991;stroke-width:1px;stroke:#000;"/><path id="path4144" d="M8298,1564.98c-36,-19 -74,-29 -112,-29c-38,0 -68,10 -91,28c-22,19 -45,48 -67,85l-8,14l0,-16c-2,-37 -9,-65 -22,-84c-13,-18 -34,-27 -63,-27c-58,0 -86,39 -86,121l0,517c0,36 8,63 25,81c16,18 37,27 62,27c26,0 48,-9 64,-27c17,-17 26,-45 26,-81l0,-155c0,-56 2,-104 5,-142c4,-39 10,-73 20,-102c10,-29 24,-51 42,-66c31,-25 76,-30 140,-9c32,10 43,12 48,12c16,0 33,-7 47,-21c15,-14 22,-31 22,-53c0,-30 -17,-54 -52,-73Z" style="fill:#2b3991;stroke-width:1px;stroke:#000;"/><path id="path4149" d="M9057,2182.98c27,-32 49,-72 65,-119c16,-47 24,-100 24,-156c0,-77 -14,-144 -41,-200c-28,-55 -66,-98 -113,-127c-47,-29 -99,-44 -155,-44c-47,0 -89,10 -126,30c-37,20 -73,52 -107,94l-9,10l0,-35c0,-33 -8,-58 -23,-75c-16,-16 -36,-25 -61,-25c-26,0 -46,8 -60,25c-15,16 -22,42 -22,76l0,802c0,39 5,69 16,90c11,19 32,29 66,29c57,0 84,-39 84,-118l0,-292l9,10c32,41 66,72 101,93c36,21 80,31 132,31c43,0 84,-8 121,-26c38,-17 71,-41 99,-73ZM8944,2037.98c-16,36 -38,64 -64,82c-27,19 -57,28 -89,28c-53,0 -98,-21 -133,-63c-36,-42 -54,-101 -54,-176c0,-79 18,-140 54,-181c36,-41 81,-62 133,-62c33,0 64,9 91,29c27,19 49,47 64,83c15,35 23,78 23,128c0,51 -9,95 -25,132Z" style="fill:#2b3991;stroke-width:1px;stroke:#000;"/><path id="path4154" d="M9897,2147.98c13,-21 19,-40 19,-56c0,-18 -5,-31 -16,-41c-11,-10 -25,-14 -43,-14c-17,0 -29,3 -38,11c-23,22 -42,39 -56,51c-15,13 -31,25 -48,37c-18,11 -36,19 -55,25c-19,5 -40,8 -62,8c-34,0 -66,-9 -94,-26c-28,-16 -50,-41 -67,-74c-17,-33 -26,-71 -26,-114l0,-4l368,0c47,0 85,-7 111,-21c25,-13 37,-42 37,-86c0,-50 -13,-99 -38,-147c-25,-47 -64,-87 -115,-117c-51,-30 -113,-45 -184,-45c-56,0 -106,9 -151,27c-45,17 -83,43 -114,76c-31,33 -55,73 -71,119c-16,46 -24,97 -24,151c0,115 33,207 98,274c65,67 158,101 275,101c52,0 98,-7 137,-21c40,-13 73,-30 99,-50c26,-20 45,-42 58,-64ZM9411,1848.98c6,-63 25,-112 55,-144c30,-33 70,-50 117,-50c50,0 91,17 121,49c30,32 48,81 53,145l0,5l-347,0l1,-5Z" style="fill:#2b3991;stroke-width:1px;stroke:#000;"/><path id="path4159" d="M10695,1827.98c0,-40 -2,-74 -5,-100c-4,-26 -12,-50 -24,-72c-18,-38 -47,-68 -84,-89c-38,-20 -81,-31 -129,-31c-50,0 -94,10 -132,30c-38,20 -74,51 -106,93l-8,11l0,-36c0,-21 -4,-39 -11,-54c-8,-15 -18,-26 -30,-33c-13,-7 -27,-11 -42,-11c-25,0 -46,8 -60,25c-15,16 -22,42 -22,76l0,537c0,35 8,62 25,81c16,18 37,27 62,27c27,0 48,-9 65,-27c16,-17 25,-45 25,-81l0,-233c0,-77 4,-128 13,-156c13,-36 34,-64 62,-84c28,-20 59,-30 93,-30c53,0 88,17 106,51c17,33 26,81 26,142l0,310c0,35 8,62 25,81c16,18 38,27 64,27c26,0 46,-9 63,-27c16,-18 24,-45 24,-81l0,-346Z" style="fill:#2b3991;stroke-width:1px;stroke:#000;"/><path id="path4164" d="M11277,2193.98c0,-17 -5,-30 -16,-41c-11,-12 -24,-17 -37,-17c-11,0 -25,2 -43,6c-19,4 -34,6 -45,6c-22,0 -37,-6 -47,-17c-9,-10 -15,-24 -17,-40c-2,-16 -4,-39 -4,-68l0,-346l40,0c36,0 64,-5 83,-15c18,-9 27,-25 27,-48c0,-18 -7,-33 -20,-44c-13,-12 -32,-18 -57,-18l-73,0l0,-131c0,-31 -1,-55 -5,-72c-3,-16 -10,-29 -22,-41c-18,-16 -39,-25 -61,-25c-16,0 -31,4 -43,11c-13,8 -23,18 -30,30c-7,11 -11,25 -13,42c-1,17 -2,40 -2,70l0,116l-25,0c-27,0 -48,6 -62,18c-13,11 -20,26 -20,44c0,18 6,33 20,45c13,12 32,18 58,18l29,0l0,361c0,57 4,103 14,137c9,33 28,60 57,78c29,19 72,29 129,29c60,0 107,-8 139,-23c31,-16 46,-37 46,-65Z" style="fill:#2b3991;stroke-width:1px;stroke:#000;"/><path id="path4169" d="M11811,1564.98c-36,-19 -74,-29 -112,-29c-38,0 -68,10 -91,28c-22,19 -45,48 -67,85l-8,14l-1,-16c-1,-37 -8,-65 -21,-84c-13,-18 -34,-27 -63,-27c-58,0 -86,39 -86,121l0,517c0,36 8,63 25,81c16,18 37,27 62,27c26,0 48,-9 64,-27c17,-17 26,-45 26,-81l0,-155c0,-56 1,-104 5,-142c4,-39 10,-73 20,-102c10,-29 24,-51 42,-66c31,-25 76,-30 140,-9c32,10 43,12 48,12c16,0 33,-7 47,-21c15,-14 22,-31 22,-53c0,-30 -17,-54 -52,-73Z" style="fill:#2b3991;stroke-width:1px;stroke:#000;"/><path id="path4174" d="M12243,2460.98c20,-31 40,-75 61,-130l242,-634c6,-17 11,-33 15,-48c4,-16 7,-28 9,-37c0,-12 -3,-25 -10,-37c-7,-12 -16,-21 -28,-28c-12,-7 -25,-11 -39,-11c-18,0 -33,3 -42,10c-10,6 -20,18 -29,37c-9,19 -20,47 -32,81l-153,438l-162,-470c-10,-32 -22,-56 -35,-72c-13,-16 -31,-24 -57,-24c-15,0 -29,4 -42,12c-14,7 -25,18 -32,31c-8,13 -12,27 -12,42c0,14 7,38 21,70l229,578l-17,43c-13,30 -25,54 -35,70c-10,16 -21,28 -34,34c-13,7 -31,10 -53,10c-9,0 -19,-1 -31,-4c-10,-3 -19,-4 -29,-4c-24,0 -42,6 -54,16c-12,11 -18,26 -18,46c0,30 12,50 38,61c27,11 67,17 121,17c55,0 99,-8 131,-25c32,-17 58,-41 77,-72Z" style="fill:#2b3991;stroke-width:1px;stroke:#000;"/><path id="path4179" d="M993,1356.98c0,0 -9,28 0,37c8,9 51,12 51,12l0,534l85,61l72,-68l0,-522l22,-5c34,9 42,-21 42,-21l0,-28l-272,0ZM1171,1926.98l-24,10l0,-523l24,-8l0,521ZM1235,1382.98c-25,2 -187,-17 -187,-17l187,0c0,0 26,16 0,17Z" style="fill:#2b3991;stroke-width:1px;stroke:#000;"/><path id="path4184" d="M1392,1588.98l-2,-1c-14,-14 -33,-22 -53,-22c-43,0 -77,35 -77,77c0,20 7,39 22,54l1,1c2,3 5,5 8,7c53,47 84,115 84,185c0,137 -111,247 -248,247c-136,0 -247,-110 -247,-247c0,-69 29,-136 81,-182c22,-15 34,-39 34,-65c0,-42 -34,-77 -77,-77c-20,0 -39,8 -54,22l-1,2l-1,-1c-87,76 -136,186 -136,301c0,221 180,401 401,401c221,0 401,-180 401,-401c0,-115 -49,-225 -136,-301Z" style="fill:#2b3991;stroke-width:1px;stroke:#000;"/></svg>